<svg width="64" height="64" fill="none" xmlns="http://www.w3.org/2000/svg"><path d="M30.5 9c-5.4 0-11.2 4.3-11.2 12.2 0 4.2 1.4 7.6 2.8 11 1.3 3.1 2.5 6.2 2.5 9.8 0 2-.5 3.6-1.5 4.6-.7.8-1.8 1.3-3 1.3-2.5 0-5.1-1.9-5.1-5.9V28.5C15 20 8.6 16.9 4.3 16.9H1a1 1 0 00-1.1 1v4.4c0 .6.5 1 1 1h3.2c1.3 0 4.4.7 4.4 5.2V42c0 8 5.9 12.3 11.5 12.3 3 0 5.6-1 7.6-3.1 1.6-1.6 3.4-4.5 3.4-9.2 0-5-1.7-8.9-3-12.4-1.3-3-2.4-5.5-2.4-8.4 0-4 2.5-5.7 4.8-5.7 1.3 0 2.4.5 3.2 1.4 1 1.1 1.7 3 1.7 5.3v12.6c0 5.2 3.7 11 11.7 11h5.1L48 50c-.6.5-.6 1.4 0 2l2.6 2.6a1.3 1.3 0 001.9 0l11.1-11.2c.5-.5.5-1.4 0-1.9L52.5 30.3a1.3 1.3 0 00-1.9 0L48 33c-.6.5-.6 1.4 0 1.9l4.2 4.3h-5c-5 0-5.4-3.4-5.4-4.5V22.2C41.8 13.2 36 9 30.5 9z" fill="#72CAAF"/><path d="M30.5 11c4.6 0 9.3 3.5 9.3 11.2v12.5c0 3 2 6.5 7.3 6.5H57l-3.3-3.4-3.9-3.8 1.8-1.8 10.1 10.3-10.1 10.2-1.8-1.7 3.9-3.9 3.3-3.4h-9.8c-7.8 0-9.8-5.6-9.8-9V22.3c0-2.8-.8-5.1-2.2-6.7a6.2 6.2 0 00-4.7-2c-3.4 0-6.8 2.6-6.8 7.7a24 24 0 002.5 9.2C27.6 34 29 37.4 29 42c0 4-1.5 6.5-2.8 7.8a8.6 8.6 0 01-6.2 2.5c-2.4 0-4.8-1-6.5-2.6-2-1.9-3-4.5-3-7.7V28.5c0-5.1-3.3-7-6.3-7.2H2V19h2.3c3 0 8.7 2 8.7 9.6V42c0 5.2 3.6 7.9 7 7.9 1.8 0 3.4-.7 4.6-1.9 1.3-1.4 2-3.4 2-6 0-4-1.3-7.4-2.7-10.6a26 26 0 01-2.6-10.2c0-3.1 1-5.8 3-7.6 1.6-1.7 4-2.6 6.2-2.6zm0-2c-5.4 0-11.2 4.3-11.2 12.2 0 4.2 1.4 7.6 2.8 11 1.3 3.1 2.5 6.2 2.5 9.8 0 2-.5 3.6-1.5 4.6-.7.8-1.8 1.3-3 1.3-2.5 0-5.1-1.9-5.1-5.9V28.5C15 20 8.6 16.9 4.3 16.9H1a1 1 0 00-1.1 1v4.4c0 .6.5 1 1 1h3.2c1.3 0 4.4.7 4.4 5.2V42c0 8 5.9 12.3 11.5 12.3 3 0 5.6-1 7.6-3.1 1.6-1.6 3.4-4.5 3.4-9.2 0-5-1.7-8.9-3-12.4-1.3-3-2.4-5.5-2.4-8.4 0-4 2.5-5.7 4.8-5.7 1.3 0 2.4.5 3.2 1.4 1 1.1 1.7 3 1.7 5.3v12.6c0 5.2 3.7 11 11.7 11h5.1L48 50c-.6.5-.6 1.4 0 2l2.6 2.6a1.3 1.3 0 001.9 0l11.1-11.2c.5-.5.5-1.4 0-1.9L52.5 30.3a1.3 1.3 0 00-1.9 0L48 33c-.6.5-.6 1.4 0 1.9l4.2 4.3h-5c-5 0-5.4-3.4-5.4-4.5V22.2C41.8 13.2 36 9 30.5 9zM7.3 54.2a1 1 0 01-.6-1.8l1.5-1.2a1 1 0 111.3 1.5L7.9 54a1 1 0 01-.6.2zM11.3 57.8a1 1 0 01-.8-1.5l1-1.8a1 1 0 111.7 1.1L12 57.3a1 1 0 01-.8.5zM16.1 59.8H16a1 1 0 01-.7-1.2l.4-2a1 1 0 012 .5l-.5 2a1 1 0 01-1 .7zM21.4 60.3a1 1 0 01-1-1l-.1-2a1 1 0 012 0l.1 1.9a1 1 0 01-1 1zM26.6 59a1 1 0 01-1-.6l-.8-1.9a1 1 0 111.9-.8l.8 1.9a1 1 0 01-1 1.4zM37.6 9a1 1 0 01-.9-1.5l1.1-1.7a1 1 0 011.7 1l-1 1.7a1 1 0 01-.9.5zM33.5 7.3h-.2a1 1 0 01-.7-1.2l.4-2a1 1 0 012 .5l-.5 2a1 1 0 01-1 .7zM29 7a1 1 0 01-.9-.8l-.2-2a1 1 0 112-.2l.2 2a1 1 0 01-1 1zM24.8 8.2a1 1 0 01-1-.6l-.7-1.8a1 1 0 111.8-.8l.8 1.8a1 1 0 01-1 1.4zM21 10.7a1 1 0 01-.7-.4L19 9a1 1 0 011.5-1.4L21.8 9a1 1 0 01-.7 1.7z" fill="#8D6C9F"/></svg>