<svg width="50" height="50" fill="none" xmlns="http://www.w3.org/2000/svg"><path d="M24.22 2.34a21.87 21.87 0 100 43.75 21.87 21.87 0 000-43.75z" fill="#8B8E98"/><path d="M24.22 42.19a17.97 17.97 0 110-35.94 17.97 17.97 0 010 35.94z" fill="#7E8189"/><path d="M28.19 33.87a8.6 8.6 0 012.28 5.2v4.1c0 .42.18 1.66.7 1.8l-6.95 1.26-7.03-1.25c.56-.13.78-1.39.78-1.82v-2.53c-6.09 1.32-7.34-3.36-7.34-3.36-1-2.53-2.43-3.2-2.43-3.2-1.99-1.36.14-1.34.14-1.34A4.6 4.6 0 0111.72 35c1.95 3.34 5.03 3.06 6.25 2.51.2-1.41 1.64-3.07 2.26-3.62-4.86-.55-9.96-2.43-9.96-10.81a8.46 8.46 0 012.23-5.88 7.88 7.88 0 01.22-5.8s1.83-.58 6.01 2.25c3.58-.98 7.36-.98 10.94 0 4.17-2.83 6.01-2.24 6.01-2.24.82 1.83.91 3.9.26 5.79a8.46 8.46 0 012.24 5.86c0 8.43-5.12 10.28-10 10.82z" fill="#FAEFDE"/><path d="M24.22 1.56a22.66 22.66 0 00-7.45 44.05c.12.09.27.14.43.15a22.66 22.66 0 107.02-44.2zm-5.7 42.97c.14-.44.22-.9.23-1.36v-.42-2.13a.78.78 0 00-.95-.78c-5.25 1.14-6.38-2.64-6.43-2.8v-.08a7.37 7.37 0 00-2.34-3.31 4.2 4.2 0 012 1.72C13.1 38.9 16.5 39 18.3 38.2a.78.78 0 00.45-.6 6.73 6.73 0 012-3.13.78.78 0 00-.44-1.36c-4.58-.52-9.27-2.13-9.27-10.03-.03-1.98.7-3.9 2.05-5.35a.78.78 0 00.2-.82 6.9 6.9 0 010-4.76c.66 0 2.27.3 5 2.15a.78.78 0 00.66.11c3.44-.94 7.08-.94 10.53 0a.78.78 0 00.64-.1c2.75-1.86 4.37-2.15 5.01-2.17.58 1.53.6 3.22.06 4.77a.78.78 0 00.15.82 7.67 7.67 0 012.03 5.34c0 7.91-4.68 9.5-9.28 10.02a.78.78 0 00-.43 1.36 7.97 7.97 0 012.03 4.61v4.1c0 .47.08.93.22 1.37a20.98 20.98 0 01-11.4 0zm12.89-.47c-.1-.28-.15-.58-.16-.88v-4.12a9.1 9.1 0 00-1.56-4.61c4.33-.74 9.29-2.99 9.29-11.38a9.19 9.19 0 00-2.14-6.04 8.94 8.94 0 00-.38-5.9.78.78 0 00-.48-.46c-.22-.07-2.23-.6-6.4 2.14-3.5-.9-7.16-.9-10.67 0-4.16-2.73-6.17-2.2-6.39-2.14a.78.78 0 00-.48.46 8.92 8.92 0 00-.38 5.9 9.18 9.18 0 00-2.14 6.04c0 8.32 4.87 10.61 9.17 11.38a7.43 7.43 0 00-1.36 2.46c-1.11.32-3.4.32-4.92-2.3a5.39 5.39 0 00-4.02-2.65c-.42 0-1.48.07-1.73.88-.25.82.7 1.57 1.14 1.88l.1.05c.05 0 1.19.63 2.03 2.76.18.56 1.73 4.77 7.3 4.02V43.16c0 .3-.06.6-.16.89a21.1 21.1 0 1114.38 0l-.04.01z" fill="#8D6C9F"/><path d="M24.22 28.9a.78.78 0 00-.78.79v1.56a.78.78 0 101.56 0v-1.56a.78.78 0 00-.78-.78zm3.6 1.98a.78.78 0 101.5-.41l-.41-1.5a.78.78 0 00-1.51.4l.41 1.51zm-10.83-3.91a.78.78 0 00-1.07.29l-.78 1.35a.78.78 0 001.35.78l.78-1.35a.78.78 0 00-.28-1.07zm14.95 2.42a.78.78 0 101.35-.78l-.78-1.35a.78.78 0 00-1.35.78l.78 1.35zm-11.46-.98a.78.78 0 00-.96.56l-.4 1.5a.78.78 0 101.5.4l.41-1.5a.78.78 0 00-.55-.96zM32.3 7.4c-.58-.3-1.18-.55-1.8-.78a.78.78 0 00-.54 1.46c.56.21 1.1.45 1.64.72.11.05.23.08.35.09a.78.78 0 00.35-1.48zm-5.23-1.7c-4.03-.63-8.17.12-11.72 2.13a.78.78 0 10.78 1.36 16.48 16.48 0 0110.7-1.94.8.8 0 00.25-1.56l-.01.02z" fill="#8D6C9F"/></svg>