<svg width="50" height="50" fill="none" xmlns="http://www.w3.org/2000/svg"><path d="M39.8 5.5H10.2a4.7 4.7 0 00-4.7 4.7v29.6c0 2.6 2 4.7 4.7 4.7h29.6c2.6 0 4.7-2 4.7-4.7V10.2c0-2.6-2-4.7-4.7-4.7z" fill="#58B5E8"/><path d="M15.2 14.8a2.7 2.7 0 100 5.5 2.7 2.7 0 000-5.5zm15.9 7c-1.8 0-4 1.5-4.9 2.3v-1a.8.8 0 00-.8-.9h-4a.8.8 0 00-.7.8v16.4a.8.8 0 00.8.8h4.2a.8.8 0 00.8-.8v-8.2c0-2.5 1.4-4.2 3-4.2 1.7 0 2.6 1.9 2.6 4.3v8.1a.8.8 0 00.8.8h4.2a.8.8 0 00.8-.8v-9.1c0-4.2-.9-8.4-6.8-8.4zm-18.6.9H18v17.1h-5.5V22.7z" fill="#FAEFDE"/><path d="M8.6 5.5h32.8a3.1 3.1 0 013.1 3 2.3 2.3 0 01-2.3 2.4H7.8a2.3 2.3 0 01-2.3-2.3 3.1 3.1 0 013-3.1z" fill="#65C5EF"/><path d="M18 21.9h-5.5a.8.8 0 00-.8.8v17.1a.8.8 0 00.8.8H18a.8.8 0 00.8-.8V22.7a.8.8 0 00-.8-.8zM17.2 39h-4V23.4h4v15.7zm14-17.7c-1.6 0-3 .5-4.3 1.5v-.2a.8.8 0 00-.8-.8h-5a.8.8 0 00-.8.8v17.1a.8.8 0 00.8.8h5.2a.8.8 0 00.8-.8v-8.6c0-2.6.6-3.6 2.4-3.6 1.7 0 1.9 1.1 1.9 3.7v8.5a.8.8 0 00.8.8h5.2a.8.8 0 00.8-.8v-9.5c0-4.4-.8-8.9-7-8.9zm5.4 17.7H33v-7.8c0-1.8 0-5.3-3.5-5.3-4 0-4 3.9-4 5.2V39H22V23.4h3.4V25a.8.8 0 00.9.8.8.8 0 00.7-.4A4.7 4.7 0 0131 23c4.6 0 5.5 2.8 5.5 7.3V39zM15.2 14a3.5 3.5 0 100 7 3.5 3.5 0 000-7zm0 5.7a2.2 2.2 0 110-4.4 2.2 2.2 0 010 4.4z" fill="#8D6C9F"/><path d="M39.8 4.7H10.2a5.5 5.5 0 00-5.5 5.5v29.6a5.5 5.5 0 005.5 5.5h29.6a5.5 5.5 0 005.5-5.5V10.2a5.5 5.5 0 00-5.5-5.5zm4 35.1a4 4 0 01-4 4H10.2a4 4 0 01-4-4V10.2a4 4 0 014-4h29.6a4 4 0 014 4v29.6z" fill="#8D6C9F"/><path d="M13.3 12.5a.8.8 0 00.8-.8v-1.5a.8.8 0 00-1.6 0v1.5a.8.8 0 00.8.8zm-4-3.1a.8.8 0 00-.7.8v1.5a.8.8 0 101.6 0v-1.5a.8.8 0 00-.8-.8zM25 12.5a.8.8 0 00.8-.8v-1.5a.8.8 0 00-1.6 0v1.5a.8.8 0 00.8.8zm4 0a.8.8 0 00.7-.8v-1.5a.8.8 0 00-1.6 0v1.5a.8.8 0 00.8.8zm3.8 0a.8.8 0 00.8-.8v-1.5a.8.8 0 00-1.6 0v1.5a.8.8 0 00.8.8zm4 0a.8.8 0 00.7-.8v-1.5a.8.8 0 00-1.6 0v1.5a.8.8 0 00.8.8zm3.8-3.1a.8.8 0 00-.8.8v1.5a.8.8 0 101.6 0v-1.5a.8.8 0 00-.8-.8zm-23.4 3.1a.8.8 0 00.8-.8v-1.5a.8.8 0 00-1.6 0v1.5a.8.8 0 00.8.8zm3.9 0a.8.8 0 00.8-.8v-1.5a.8.8 0 00-1.6 0v1.5a.8.8 0 00.8.8z" fill="#8D6C9F"/></svg>