<svg width="50" height="50" fill="none" xmlns="http://www.w3.org/2000/svg"><path d="M41.1 6.9l-1-1.1c-3.1-3-8-3-11.1 0l-4.5 4.4c-3 3-3 8 0 11l1.1 1.1c3.1 3 8 3 11.1 0l4.4-4.4c3-3 3-8 0-11zM37.8 14l-5 5-.7.4c.3-.5-.9-.1-.9-.8 0-.9 1-2.7.4-3.4-.7-.7-2.5-.5-3.5-.5-.6 0-.2-.4-.8 0l.5-.7 5-5c1-1 2.7-1 3.7 0l1.3 1.2a2.6 2.6 0 010 3.8zM22.3 25.6l-1-1c-3.1-3.1-8-3.1-11.1 0L5.8 29c-3 3-3 8 0 11l1 1.1c3.1 3 8 3 11.1 0l4.4-4.4c3-3 3-8 0-11zm-2.8 7.2l-5.4 5.4a2.9 2.9 0 01-4 0L8.6 37a2.9 2.9 0 010-4.1l5.4-5.4.7-.5c-.3.5 0 .6 0 1.2 0 1 0 2.6.6 3.3.8.8 1.5.6 2.6.6.6 0 1.5.4 2 0l-.5.8z" fill="#F9E3AE"/><path d="M40 5.8c-3-3-8-3-11 0l-4.5 4.4c-3 3-3 8 0 11l.6.6 6.5-6.5c-.7-.7-2.5-.5-3.5-.5-.6 0-.2-.4-.8 0l.5-.7 5-5c1-1 2.7-1 3.7 0l.7.6 3.4-3.4-.6-.5zM21.2 24.5c-3-3-8-3-11 0L5.8 29c-3 3-3 8 0 11l.5.6 3-3-.6-.7a2.9 2.9 0 010-4.1l5.4-5.4.7-.5c-.3.5 0 .6 0 1.2 0 1 0 2.6.6 3.3l6.4-6.3-.6-.6z" fill="#F9E3AE"/><path d="M41.1 18l-4.4 4.3c-3 3-8 3-11 0l-.6-.5 6.5-6.5c.6.7-.4 2.5-.4 3.4 0 .7 1.2.3 1 .8.2 0 .4-.3.6-.4l5-5a2.7 2.7 0 000-3.8l-.6-.6 3.4-3.4.5.6c3 3 3 8 0 11zM22.3 36.6L18 41.1c-3 3-8 3-11 0l-.6-.5 3-3 .7.6c1.1 1.1 3 1.1 4 0l5.5-5.4.5-.7c-.5.3-1.4 0-2 0-1 0-1.8 0-2.6-.7l6.4-6.3.5.5c3 3.1 3 8 0 11.1z" fill="#F6D397"/><path d="M15.7 31.2c-1-1-1-2.4 0-3.3l12.2-12.2a2.3 2.3 0 113.3 3.3L19 31.2c-.9.9-2.4.9-3.3 0z" fill="#F9E3AE"/><path d="M25 25l-6 6.2a2.3 2.3 0 01-3.3-3.3l6-6.1 3.4 3.3z" fill="#F6D397"/><path d="M41.7 6.3l-1.1-1a8.6 8.6 0 00-12.2 0L24 9.5A8.6 8.6 0 0022.6 20l-2.7 2.7A8.6 8.6 0 009.6 24l-4.4 4.4a8.5 8.5 0 000 12.2l1.1 1a8.5 8.5 0 0012.2 0l4.4-4.4c2.8-2.7 3.2-7 1.4-10.2l2.7-2.7A8.6 8.6 0 0037.3 23l4.4-4.4a8.5 8.5 0 000-12.2zM23.8 31.2a7 7 0 01-2 5l-4.4 4.4a7 7 0 01-10 0l-1-1.1a7 7 0 010-10l4.3-4.4a7 7 0 018-1.4l-2.4 2.5h-.6c-1 0-2 .4-2.8 1.1l-4.4 4.4c-.7.8-1.1 1.7-1.1 2.8 0 1 .4 2 1.1 2.8l1.1 1a3.9 3.9 0 005.5 0l4.5-4.4a3.9 3.9 0 001-3.3l2.5-2.5c.5 1 .7 2 .7 3zm-8.7.5a3.1 3.1 0 003.8.5l-.4.6-4.5 4.5c-.9.9-2.4.9-3.3 0l-1-1.2a2.3 2.3 0 010-3.3l4.3-4.4.6-.4a3.1 3.1 0 00.5 3.7zm8.3-6l-1.1 1-2.2 2.3-1.2 1.2-.4.4c-.3.3-.7.5-1.1.5a1.5 1.5 0 01-1.6-1.6c0-.4.2-.8.5-1l.4-.5 1.2-1.2 2.2-2.2 1.1-1.1 2.3-2.3 1-1.1 2.3-2.2 1.2-1.2.4-.4a1.6 1.6 0 012.2 0 1.5 1.5 0 010 2.2l-.4.4-1.2 1.2-2.2 2.2-1.1 1.1-2.3 2.3zM31.7 15a3.1 3.1 0 00-3.7-.5c0-.2.2-.4.4-.6l4.4-4.4c1-.9 2.4-.9 3.3 0l1.1 1.1a2.3 2.3 0 010 3.3l-4.4 4.5-.6.4a3.1 3.1 0 00-.5-3.7zm8.9 2.3L36 21.8a7 7 0 01-8 1.3l2.5-2.4h.6c1 0 2-.4 2.7-1.1l4.5-4.5a3.9 3.9 0 000-5.5l-1.1-1a4 4 0 00-5.6 0l-4.4 4.3a3.9 3.9 0 00-1.1 3.3l-2.5 2.5a7 7 0 011.4-8l4.4-4.4a7 7 0 0110 0l1 1.1a7 7 0 010 10zm-27.8-3.7a.8.8 0 001 0c.4-.3.4-.8 0-1l-1-1.2a.8.8 0 10-1.1 1.1l1 1.1zM9.3 16l1.4.8h.4a.8.8 0 00.4-1.4l-1.4-.8a.8.8 0 10-.8 1.4zM19 9.7a.8.8 0 101.5-.4L20 7.8a.8.8 0 10-1.5.4l.4 1.5zm-11 10.1l1.6.4h.2a.8.8 0 00.2-1.5l-1.5-.4a.8.8 0 00-.4 1.5zm7.7-8.5a.8.8 0 101.3-.8l-.8-1.3a.8.8 0 10-1.3.8l.8 1.3zm19.7 22.8a.8.8 0 10-1 1l1 1.2a.8.8 0 101.2-1.1L35.3 34zm3.5-2.3l-1.4-.8a.8.8 0 10-.8 1.4l1.4.8h.4a.8.8 0 00.4-1.4zm-9.6 6.3a.8.8 0 10-1.5.4l.4 1.5a.8.8 0 101.6-.4l-.5-1.5zm11-10.1l-1.6-.4a.8.8 0 00-.4 1.5l1.5.4h.2a.8.8 0 00.2-1.5zm-7.6 8.5a.8.8 0 10-1.4.8l.8 1.3a.8.8 0 101.3-.8l-.7-1.3z" fill="#8D6C9F"/></svg>