<svg width="50" height="50" fill="none" xmlns="http://www.w3.org/2000/svg"><path d="M46 8.5H3.9c-.8 0-1.5.7-1.5 1.6v28.4c0 .8.7 1.5 1.5 1.5h42.3c.9 0 1.6-.7 1.6-1.5V10c0-1-.7-1.6-1.6-1.6z" fill="#FAEFDE"/><path d="M47.7 11L25 26.5 2.3 10.9v-.7A1.6 1.6 0 014 8.6h42.2a1.6 1.6 0 011.6 1.6v.7z" fill="#FFF7F0"/><path d="M5.4 36h39.1a3.1 3.1 0 013.2 3v.2a.8.8 0 01-.8.8H3a.8.8 0 01-.7-.8v-.1a3.1 3.1 0 013-3.2z" fill="#EFD8BE"/><path d="M3.8 11.7h42.3a1.6 1.6 0 000-3.1H3.8a1.6 1.6 0 000 3.1z" fill="#fff"/><path d="M46 7.8H4a2.3 2.3 0 00-2.4 2.4v28a2.3 2.3 0 002.3 2.4h42.2a2.3 2.3 0 002.3-2.3V10.2a2.3 2.3 0 00-2.3-2.4zM4 9.4h42a.8.8 0 01.9.8v.3l-21 15.2a1.6 1.6 0 01-1.8 0L3 10.5v-.3a.8.8 0 01.8-.8zM46 39H4a.8.8 0 01-.9-.8V34L17 25.7a.8.8 0 10-.8-1.4L3 32.2V12.5l20 14.5a3.1 3.1 0 003.7 0l20-14.5v19.7L34 24.3a.8.8 0 10-.8 1.4L46.9 34v4.3a.8.8 0 01-.8.8z" fill="#8D6C9F"/><path d="M9.4 34.4a.8.8 0 00-.8.8v1.5a.8.8 0 101.6 0v-1.5a.8.8 0 00-.8-.8zm-4 0a.8.8 0 00-.7.8v1.5a.8.8 0 101.5 0v-1.5a.8.8 0 00-.7-.8zm7.9 0a.8.8 0 00-.8.8v1.5a.8.8 0 101.6 0v-1.5a.8.8 0 00-.8-.8zm3.9 0a.8.8 0 00-.8.8v1.5a.8.8 0 001.6 0v-1.5a.8.8 0 00-.8-.8zm3.9 0a.8.8 0 00-.8.8v1.5a.8.8 0 101.6 0v-1.5a.8.8 0 00-.8-.8zm3.9 0a.8.8 0 00-.8.8v1.5a.8.8 0 101.6 0v-1.5a.8.8 0 00-.8-.8zm4 0a.8.8 0 00-.9.8v1.5a.8.8 0 101.6 0v-1.5a.8.8 0 00-.8-.8zm3.8 0a.8.8 0 00-.8.8v1.5a.8.8 0 001.6 0v-1.5a.8.8 0 00-.8-.8zm4 0a.8.8 0 00-.9.8v1.5a.8.8 0 101.6 0v-1.5a.8.8 0 00-.8-.8zm3.8 0a.8.8 0 00-.8.8v1.5a.8.8 0 101.6 0v-1.5a.8.8 0 00-.8-.8zm4 0a.8.8 0 00-.9.8v1.5a.8.8 0 101.6 0v-1.5a.8.8 0 00-.8-.8z" fill="#8D6C9F"/></svg>