<svg width="40" height="40" fill="none" xmlns="http://www.w3.org/2000/svg"><path d="M35.6 4.4H4.4c-.7 0-1.3.5-1.3 1.2v28.8c0 .7.6 1.2 1.3 1.2h31.2c.7 0 1.3-.5 1.3-1.2V5.6c0-.7-.6-1.2-1.3-1.2z" fill="#CDA1A7"/><path d="M5.6 32.5h28.8a2.5 2.5 0 012.5 2.5.6.6 0 01-.6.6H3.8A.6.6 0 013 35a2.5 2.5 0 012.5-2.5z" fill="#C4939C"/><path d="M35.6 3.8H4.4a1.9 1.9 0 00-1.9 1.8v28.8a1.9 1.9 0 001.9 1.9h31.2a1.9 1.9 0 001.9-2V5.7a1.9 1.9 0 00-1.9-1.8zm.6 30.6a.6.6 0 01-.6.6H4.4a.6.6 0 01-.7-.6V5.6a.6.6 0 01.7-.6h31.2a.6.6 0 01.6.6v28.8z" fill="#8D6C9F"/><path d="M8.8 31.3a.6.6 0 00-.7.6V33a.6.6 0 101.3 0V32a.6.6 0 00-.7-.6zm-3.2 0a.6.6 0 00-.6.6V33a.6.6 0 101.3 0V32a.6.6 0 00-.7-.6zm12.5 0a.6.6 0 00-.6.6V33a.6.6 0 101.3 0V32a.6.6 0 00-.7-.6zm3.1 0a.6.6 0 00-.6.6V33a.6.6 0 101.3 0V32a.6.6 0 00-.6-.6zm3.2 0a.6.6 0 00-.6.6V33a.6.6 0 101.2 0V32a.6.6 0 00-.6-.6zm3.1 0a.6.6 0 00-.6.6V33a.6.6 0 101.2 0V32a.6.6 0 00-.6-.6zm3.1 0a.6.6 0 00-.6.6V33a.6.6 0 101.3 0V32a.6.6 0 00-.7-.6zm3.1 0a.6.6 0 00-.6.6V33a.6.6 0 101.3 0V32a.6.6 0 00-.6-.6zm-21.8 0a.6.6 0 00-.7.6V33a.6.6 0 101.3 0V32a.6.6 0 00-.6-.6zm3.1 0a.6.6 0 00-.6.6V33a.6.6 0 101.2 0V32a.6.6 0 00-.6-.6z" fill="#8D6C9F"/><path d="M30.6 13.8H9.4a.6.6 0 100 1.2h21.2a.6.6 0 100-1.3zm0 5H9.4a.6.6 0 100 1.2h21.2a.6.6 0 100-1.3zm0 5H9.4a.6.6 0 100 1.2h21.2a.6.6 0 100-1.3z" fill="#FAEFDE"/></svg>