<svg width="50" height="50" fill="none" xmlns="http://www.w3.org/2000/svg"><path d="M39.8 5.5H10.2a4.7 4.7 0 00-4.7 4.7v29.6c0 2.6 2 4.7 4.7 4.7h29.6c2.6 0 4.7-2 4.7-4.7V10.2c0-2.6-2-4.7-4.7-4.7z" fill="#85CBF8"/><path d="M38.7 18.8l-.6.3.8-1.6a.7.7 0 00-1-.8c-1 .5-1.9 1-3 1.2a6.1 6.1 0 00-10.2 4.4v.5c-3.8-.4-7.3-2.3-9.8-5.3a.7.7 0 00-1.1 0 6.1 6.1 0 000 6.3.7.7 0 00-.9.7 6.1 6.1 0 002.4 4.8.7.7 0 00-.5.8 6 6 0 004 4c-2 1-4 1.4-6.2 1.1a.7.7 0 00-.4 1.3 16 16 0 008.7 2.6 15.4 15.4 0 0012-5.3c2.5-3 4-6.8 4-10.8v-.4c1-.8 2-1.7 2.6-2.7a.7.7 0 00-.8-1z" fill="#FAEFDE"/><path d="M8.6 5.5h32.8a3.1 3.1 0 013.1 3 2.3 2.3 0 01-2.3 2.4H7.8a2.3 2.3 0 01-2.3-2.3 3.1 3.1 0 013-3.1z" fill="#9FDDFF"/><path d="M39.8 4.7H10.2a5.5 5.5 0 00-5.5 5.5v29.6a5.5 5.5 0 005.5 5.5h29.6a5.5 5.5 0 005.5-5.5V10.2a5.5 5.5 0 00-5.5-5.5zm4 35.1a4 4 0 01-4 4H10.2a4 4 0 01-4-4V10.2a4 4 0 014-4h29.6a4 4 0 014 4v29.6z" fill="#8D6C9F"/><path d="M13.3 12.5a.8.8 0 00.8-.8v-1.5a.8.8 0 00-1.6 0v1.5a.8.8 0 00.8.8zm-4-3.1a.8.8 0 00-.7.8v1.5a.8.8 0 101.6 0v-1.5a.8.8 0 00-.8-.8zM25 12.5a.8.8 0 00.8-.8v-1.5a.8.8 0 00-1.6 0v1.5a.8.8 0 00.8.8zm4 0a.8.8 0 00.7-.8v-1.5a.8.8 0 00-1.6 0v1.5a.8.8 0 00.8.8zm3.8 0a.8.8 0 00.8-.8v-1.5a.8.8 0 00-1.6 0v1.5a.8.8 0 00.8.8zm4 0a.8.8 0 00.7-.8v-1.5a.8.8 0 00-1.6 0v1.5a.8.8 0 00.8.8zm3.8 0a.8.8 0 00.8-.8v-1.5a.8.8 0 00-1.6 0v1.5a.8.8 0 00.8.8zm-23.4 0a.8.8 0 00.8-.8v-1.5a.8.8 0 00-1.6 0v1.5a.8.8 0 00.8.8zm3.9 0a.8.8 0 00.8-.8v-1.5a.8.8 0 00-1.6 0v1.5a.8.8 0 00.8.8zm17.6 6.3l-.6.3.8-1.6a.7.7 0 00-1-.8c-1 .5-1.9 1-3 1.2a6.1 6.1 0 00-10.2 4.4v.5c-3.8-.4-7.3-2.3-9.8-5.3a.7.7 0 00-1.1 0 6.1 6.1 0 000 6.3.7.7 0 00-.9.7 6.1 6.1 0 002.4 4.8.7.7 0 00-.5.8 6 6 0 004 4c-2 1-4 1.4-6.2 1.1a.7.7 0 00-.4 1.3 16 16 0 008.7 2.6 15.4 15.4 0 0012-5.3c2.5-3 4-6.8 4-10.8v-.4c1-.8 2-1.7 2.6-2.7a.7.7 0 00-.8-1zm-2.9 3a.7.7 0 00-.2.5v.7a14.7 14.7 0 01-20.3 13.6c2-.2 4-1 5.7-2.3a.7.7 0 00-.4-1.3 4.7 4.7 0 01-4-2.3c.5 0 1 0 1.5-.2a.7.7 0 000-1.3 4.7 4.7 0 01-3.7-3.6c.5.2 1 .2 1.6.3a.7.7 0 00.7-.5.7.7 0 00-.3-.8 4.7 4.7 0 01-1.8-5.4 16.1 16.1 0 0011.2 5 .7.7 0 00.4-.4v-.4a4.7 4.7 0 018-4.3.7.7 0 00.7.2c.5 0 1-.2 1.6-.4l-1 .9a.7.7 0 00.4 1.2c.4 0 .7 0 1-.2l-1 1z" fill="#8D6C9F"/></svg>