<svg width="50" height="50" viewBox="0 0 50 50" fill="none" xmlns="http://www.w3.org/2000/svg">
<path d="M25.0008 45.3125C19.6523 45.3117 12.4836 45.1891 9.73438 44.9648C6.07187 44.6539 5.70547 41.1242 5.53438 35.3484L5.52344 35.0062C5.50781 34.4906 5.49219 33.9797 5.46875 33.4773C5.46953 30.7641 5.75 27.6078 6.20156 25.2711C6.95234 22.2133 8.46797 22.1672 12.1281 22.0555C12.6789 22.0391 13.2578 22.0219 13.8578 21.9898C13.8578 21.9898 14.1969 21.9852 14.5187 21.9789C15.9508 21.9484 19.2984 21.875 24.8742 21.875L25.132 21.8758C30.6477 21.8758 33.9773 21.9469 35.3992 21.9773C35.3992 21.9773 36.1141 21.993 36.2078 21.993C36.7406 22.0227 37.3195 22.0406 37.8711 22.0563C41.5312 22.168 43.0477 22.2141 43.8109 25.3281C44.2523 27.6234 44.5312 30.7773 44.5312 33.5312C44.5086 34.0258 44.4906 34.5805 44.4734 35.1422L44.4672 35.3453C44.2969 41.1227 43.9297 44.6516 40.2648 44.9617C37.525 45.1891 30.3547 45.3117 25.0008 45.3125Z" fill="#F283A5"/>
<path d="M41.4062 45.3125H8.59375L6.25 41.4062H43.75L41.4062 45.3125Z" fill="#ED7899"/>
<path d="M25.0007 46.0938C19.6421 46.093 12.4484 45.9703 9.67026 45.7437C5.04761 45.3508 4.90464 40.5031 4.75386 35.3711L4.74292 35.032C4.7273 34.5195 4.71167 34.0125 4.68823 33.5148C4.68823 30.7062 4.97417 27.5055 5.43433 25.1242C6.33511 21.4523 8.38354 21.3898 12.1023 21.2766C12.6546 21.2594 13.2242 21.2422 13.8156 21.2102L14.5031 21.1984C15.9382 21.1672 19.2945 21.0938 24.8742 21.0938L25.1343 21.0945C30.5632 21.0945 33.9125 21.1648 35.3421 21.1945C35.4171 21.1961 36.1164 21.2117 36.2078 21.2117C36.7773 21.2414 37.3484 21.2602 37.8937 21.275C41.6156 21.3891 43.6648 21.4516 44.5695 25.1414C45.0312 27.5375 45.3125 30.7367 45.3125 33.5312C45.289 34.0578 45.2718 34.6094 45.2546 35.1664L45.2484 35.3719C45.0968 40.5023 44.9539 45.35 40.3312 45.7414C37.5664 45.9695 30.3703 46.093 25.0007 46.0938ZM24.8718 22.6562C19.3117 22.6562 15.9671 22.7297 14.539 22.7609L13.8679 22.7719C13.2953 22.8031 12.7132 22.8203 12.1585 22.8375C8.3687 22.9523 7.54839 23.0609 6.96011 25.4578C6.52651 27.7109 6.25073 30.7984 6.24995 33.4781C6.27261 33.9477 6.28901 34.4633 6.30464 34.9836L6.31558 35.3234C6.50308 41.6625 7.05698 43.9539 9.79995 44.1875C12.5343 44.4102 19.6726 44.5312 25.0007 44.532C30.339 44.5312 37.4804 44.4094 40.2007 44.1852C42.9445 43.9531 43.5 41.6617 43.6867 35.3242L43.6929 35.118C43.7101 34.5531 43.7281 33.9945 43.7507 33.4961C43.75 30.8289 43.4796 27.7422 43.0445 25.475C42.4515 23.0617 41.6304 22.9523 37.8492 22.8375C37.2898 22.8211 36.7046 22.8023 36.1656 22.7727C36.107 22.8016 35.382 22.7578 35.382 22.7578C33.8843 22.7266 30.5468 22.6562 25.132 22.6562H24.8718Z" fill="#8D6C9F"/>
<path d="M16.4063 17.9687C15.975 17.9687 15.625 17.6195 15.625 17.1875V11.9211L11.8172 5.06718C11.607 4.69062 11.7438 4.21484 12.1203 4.00546C12.4985 3.79375 12.9735 3.93203 13.1828 4.30937L17.0891 11.3406C17.1539 11.4555 17.1875 11.5859 17.1875 11.7187V17.1875C17.1875 17.6195 16.8375 17.9687 16.4063 17.9687Z" fill="#8D6C9F"/>
<path d="M16.4055 12.5C16.2774 12.5 16.1469 12.4687 16.0266 12.4016C15.65 12.1914 15.5133 11.7164 15.7235 11.3398L19.6297 4.30859C19.8391 3.93203 20.3141 3.79374 20.6922 4.00468C21.0688 4.21484 21.2055 4.68984 20.9953 5.0664L17.0891 12.0976C16.9461 12.3547 16.6805 12.5 16.4055 12.5Z" fill="#8D6C9F"/>
<path d="M24.6094 17.9688C22.6711 17.9688 21.0938 16.3914 21.0938 14.4531V12.8906C21.0938 10.9523 22.6711 9.375 24.6094 9.375C26.5477 9.375 28.125 10.9523 28.125 12.8906V14.4531C28.125 16.3914 26.5477 17.9688 24.6094 17.9688ZM24.6094 10.9375C23.5328 10.9375 22.6562 11.8133 22.6562 12.8906V14.4531C22.6562 15.5305 23.5328 16.4062 24.6094 16.4062C25.6859 16.4062 26.5625 15.5305 26.5625 14.4531V12.8906C26.5625 11.8133 25.6859 10.9375 24.6094 10.9375Z" fill="#8D6C9F"/>
<path d="M33.9844 17.9688C32.0461 17.9688 30.4688 16.3914 30.4688 14.4531V10.1562C30.4688 9.72422 30.8188 9.375 31.25 9.375C31.6812 9.375 32.0312 9.72422 32.0312 10.1562V14.4531C32.0312 15.5305 32.9078 16.4062 33.9844 16.4062C35.0609 16.4062 35.9375 15.5305 35.9375 14.4531V10.1562C35.9375 9.72422 36.2875 9.375 36.7188 9.375C37.15 9.375 37.5 9.72422 37.5 10.1562V14.4531C37.5 16.3914 35.9227 17.9688 33.9844 17.9688Z" fill="#8D6C9F"/>
<path d="M19.9219 38.2812C17.9836 38.2812 16.4062 36.7039 16.4062 34.7656V30.4688C16.4062 30.0367 16.7563 29.6875 17.1875 29.6875C17.6187 29.6875 17.9688 30.0367 17.9688 30.4688V34.7656C17.9688 35.843 18.8453 36.7188 19.9219 36.7188C20.9984 36.7188 21.875 35.843 21.875 34.7656V30.4688C21.875 30.0367 22.225 29.6875 22.6562 29.6875C23.0875 29.6875 23.4375 30.0367 23.4375 30.4688V34.7656C23.4375 36.7039 21.8602 38.2812 19.9219 38.2812Z" fill="#FFF8EE"/>
<path d="M12.5 38.2812C12.0688 38.2812 11.7188 37.932 11.7188 37.5V25.7812C11.7188 25.3492 12.0688 25 12.5 25C12.9312 25 13.2812 25.3492 13.2812 25.7812V37.5C13.2812 37.932 12.9312 38.2812 12.5 38.2812Z" fill="#FFF8EE"/>
<path d="M15.625 26.5625H9.375C8.94375 26.5625 8.59375 26.2133 8.59375 25.7812C8.59375 25.3492 8.94375 25 9.375 25H15.625C16.0563 25 16.4062 25.3492 16.4062 25.7812C16.4062 26.2133 16.0563 26.5625 15.625 26.5625Z" fill="#FFF8EE"/>
<path d="M38.6719 38.2812C36.7336 38.2812 35.1562 36.7039 35.1562 34.7656V33.2031C35.1562 31.2648 36.7336 29.6875 38.6719 29.6875C40.6102 29.6875 42.1875 31.2648 42.1875 33.2031V33.5938C42.1875 34.0258 41.8375 34.375 41.4062 34.375H36.7188V34.7656C36.7188 35.843 37.5953 36.7188 38.6719 36.7188C39.4219 36.7188 40.1156 36.2805 40.4375 35.6023C40.6219 35.2117 41.0891 35.0477 41.4781 35.2313C41.868 35.4164 42.0336 35.882 41.8492 36.2719C41.2695 37.493 40.0227 38.2812 38.6719 38.2812ZM36.7578 32.8125H40.5852C40.4039 31.9219 39.6148 31.25 38.6711 31.25C37.7273 31.25 36.9398 31.9219 36.7578 32.8125Z" fill="#FFF8EE"/>
<path d="M26.5625 38.2812C26.1313 38.2812 25.7812 37.932 25.7812 37.5V25.7812C25.7812 25.3492 26.1313 25 26.5625 25C26.9937 25 27.3438 25.3492 27.3438 25.7812V37.5C27.3438 37.932 26.9937 38.2812 26.5625 38.2812Z" fill="#FFF8EE"/>
<path d="M28.5156 38.2812H26.5625C26.1313 38.2812 25.7812 37.932 25.7812 37.5C25.7812 37.068 26.1313 36.7188 26.5625 36.7188H28.5156C30.0234 36.7188 31.25 35.4922 31.25 33.9844C31.25 32.4766 30.0234 31.25 28.5156 31.25H26.5625C26.1313 31.25 25.7812 30.9008 25.7812 30.4688C25.7812 30.0367 26.1313 29.6875 26.5625 29.6875H28.5156C30.8852 29.6875 32.8125 31.6156 32.8125 33.9844C32.8125 36.3531 30.8852 38.2812 28.5156 38.2812Z" fill="#FFF8EE"/>
<path d="M9.375 42.9688C9.80625 42.9688 10.1562 42.6188 10.1562 42.1875V40.625C10.1562 40.1938 9.80625 39.8438 9.375 39.8438C8.94375 39.8438 8.59375 40.1938 8.59375 40.625V42.1875C8.59375 42.6188 8.94375 42.9688 9.375 42.9688Z" fill="#8D6C9F"/>
<path d="M13.2812 42.9688C13.7125 42.9688 14.0625 42.6188 14.0625 42.1875V40.625C14.0625 40.1938 13.7125 39.8438 13.2812 39.8438C12.85 39.8438 12.5 40.1938 12.5 40.625V42.1875C12.5 42.6188 12.85 42.9688 13.2812 42.9688Z" fill="#8D6C9F"/>
<path d="M17.1875 42.9688C17.6187 42.9688 17.9688 42.6188 17.9688 42.1875V40.625C17.9688 40.1938 17.6187 39.8438 17.1875 39.8438C16.7563 39.8438 16.4062 40.1938 16.4062 40.625V42.1875C16.4062 42.6188 16.7563 42.9688 17.1875 42.9688Z" fill="#8D6C9F"/>
<path d="M25 42.9688C25.4312 42.9688 25.7812 42.6188 25.7812 42.1875V40.625C25.7812 40.1938 25.4312 39.8438 25 39.8438C24.5688 39.8438 24.2188 40.1938 24.2188 40.625V42.1875C24.2188 42.6188 24.5688 42.9688 25 42.9688Z" fill="#8D6C9F"/>
<path d="M21.0938 42.9688C21.525 42.9688 21.875 42.6188 21.875 42.1875V40.625C21.875 40.1938 21.525 39.8438 21.0938 39.8438C20.6625 39.8438 20.3125 40.1938 20.3125 40.625V42.1875C20.3125 42.6188 20.6625 42.9688 21.0938 42.9688Z" fill="#8D6C9F"/>
<path d="M28.9062 42.9688C29.3375 42.9688 29.6875 42.6188 29.6875 42.1875V40.625C29.6875 40.1938 29.3375 39.8438 28.9062 39.8438C28.475 39.8438 28.125 40.1938 28.125 40.625V42.1875C28.125 42.6188 28.475 42.9688 28.9062 42.9688Z" fill="#8D6C9F"/>
<path d="M32.8125 42.9688C33.2437 42.9688 33.5938 42.6188 33.5938 42.1875V40.625C33.5938 40.1938 33.2437 39.8438 32.8125 39.8438C32.3813 39.8438 32.0312 40.1938 32.0312 40.625V42.1875C32.0312 42.6188 32.3813 42.9688 32.8125 42.9688Z" fill="#8D6C9F"/>
<path d="M36.7188 42.9688C37.15 42.9688 37.5 42.6188 37.5 42.1875V40.625C37.5 40.1938 37.15 39.8438 36.7188 39.8438C36.2875 39.8438 35.9375 40.1938 35.9375 40.625V42.1875C35.9375 42.6188 36.2875 42.9688 36.7188 42.9688Z" fill="#8D6C9F"/>
<path d="M40.625 42.9688C41.0562 42.9688 41.4062 42.6188 41.4062 42.1875V40.625C41.4062 40.1938 41.0562 39.8438 40.625 39.8438C40.1938 39.8438 39.8438 40.1938 39.8438 40.625V42.1875C39.8438 42.6188 40.1938 42.9688 40.625 42.9688Z" fill="#8D6C9F"/>
</svg>
